<svg xmlns="http://www.w3.org/2000/svg" width="64" height="64" viewBox="0 0 64 64" fill="none">
  <defs>
    <linearGradient id="a" x1="10" y1="14" x2="54" y2="50" gradientUnits="userSpaceOnUse">
      <stop stop-color="#0EA5E9"/>
      <stop offset="0.6" stop-color="#22C1F1"/>
      <stop offset="1" stop-color="#1D4ED8"/>
    </linearGradient>
  </defs>
  <rect x="4" y="4" width="56" height="56" rx="16" fill="#0B1020" stroke="rgba(255,255,255,0.14)" stroke-width="2"/>
  <path d="M14 32c6-7 15-12 24-12 8 0 15 3 21 8 2 2 4 4 6 6-2 2-4 4-6 6-6 5-13 8-21 8-9 0-18-5-24-12z" fill="url(#a)" opacity="0.95"/>
  <path d="M16 34c5-4 12-7 19-7 6 0 12 2 17 5 2 1 3 2 5 4-2 2-3 3-5 4-5 3-11 5-17 5-7 0-14-3-19-7z" fill="white" opacity="0.16"/>
</svg>


