<svg xmlns="http://www.w3.org/2000/svg" width="240" height="240" viewBox="0 0 240 240" fill="none">
  <defs>
    <linearGradient id="a" x1="38" y1="62" x2="206" y2="178" gradientUnits="userSpaceOnUse">
      <stop stop-color="#0EA5E9"/>
      <stop offset="0.55" stop-color="#22C1F1"/>
      <stop offset="1" stop-color="#1D4ED8"/>
    </linearGradient>
    <linearGradient id="b" x1="54" y1="88" x2="188" y2="162" gradientUnits="userSpaceOnUse">
      <stop stop-color="#0B1020"/>
      <stop offset="1" stop-color="#111A2E"/>
    </linearGradient>
  </defs>

  <rect x="16" y="16" width="208" height="208" rx="56" fill="url(#b)" stroke="rgba(255,255,255,0.14)" stroke-width="4"/>

  <!-- Wave mark (approximation) -->
  <path
    d="M54 116c18-20 44-34 70-34 22 0 44 9 62 22 7 5 12 10 18 17-6 6-11 12-18 17-18 13-40 22-62 22-26 0-52-14-70-34z"
    fill="url(#a)"
    opacity="0.92"
  />
  <path
    d="M60 122c16-14 37-23 58-23 18 0 36 6 50 15 6 4 10 8 15 13-5 5-9 9-15 13-14 9-32 15-50 15-21 0-42-9-58-23z"
    fill="white"
    opacity="0.16"
  />
  <path
    d="M66 128c14-9 30-14 46-14 14 0 28 4 39 10 5 3 8 6 12 10-4 4-7 7-12 10-11 6-25 10-39 10-16 0-32-5-46-14z"
    fill="white"
    opacity="0.12"
  />
</svg>


